<svg width="293" height="264" viewBox="0 0 293 264" fill="none" xmlns="http://www.w3.org/2000/svg">
<g clip-path="url(#clip0_2_21)">
<path d="M98.8562 118.68L81.0894 0.234985L146.69 118.68H98.8562Z" fill="#003580"/>
<path d="M134.618 83.9552L228.311 9.34616L158.534 125.058L134.618 83.9552Z" fill="#4900E6"/>
<path d="M181.54 96.7109L293 140.547L157.623 138.136L181.54 96.7109Z" fill="#003580"/>
<path d="M194.524 145.103L212.29 263.548L146.69 145.103L194.524 145.103Z" fill="#4900E6"/>
<path d="M159.294 179.239L65.6004 253.848L135.377 137.814L159.294 179.239Z" fill="#003580"/>
<path d="M111.46 166.483L0 122.647L135.377 125.058L111.46 166.483Z" fill="#4900E6"/>
<path d="M132.112 76.7688L90.2006 0.234985L158.079 54.902L132.112 76.7688Z" fill="#2D00AC"/>
<path d="M186.843 91.1983L232.168 16.6351L218.764 102.753L186.843 91.1983Z" fill="#2D00AC"/>
<path d="M201.812 146.925L288.824 146.925L207.279 179.269L201.812 146.925Z" fill="#2D00AC"/>
<path d="M161.127 186.446L203.225 262.596L135.465 206.879L161.127 186.446Z" fill="#2D00AC"/>
<path d="M105.789 170.6L62.283 245.954L75.0442 159.162L105.789 170.6Z" fill="#2D00AC"/>
<path d="M91.5673 116.858L5.92226 115.036L86.1006 83.6022L91.5673 116.858Z" fill="#2D00AC"/>
<path d="M150.334 125.058H143.045L139.401 131.436L143.045 137.814H150.334L153.979 131.436L150.334 125.058Z" fill="#003580"/>
</g>
<defs>
<clipPath id="clip0_2_21">
<rect width="293" height="264" fill="white"/>
</clipPath>
</defs>
</svg>
