<svg width="411" height="91" viewBox="0 0 411 91" fill="none" xmlns="http://www.w3.org/2000/svg">
<path d="M3.34925 35.08C2.83725 29.96 2.29325 24.872 1.71725 19.816C1.20525 14.696 0.88525 9.544 0.75725 4.36V3.592C0.82125 3.016 1.10925 2.632 1.62125 2.44C2.19725 2.184 2.77325 2.056 3.34925 2.056C3.98925 2.056 4.56525 2.184 5.07725 2.44C5.65325 2.696 6.00525 3.016 6.13325 3.4C7.66925 3.144 9.36525 3.304 11.2213 3.88C13.1413 4.456 15.0293 5.256 16.8853 6.28C18.8053 7.24 20.5653 8.328 22.1653 9.544C23.7653 10.696 25.0133 11.784 25.9093 12.808C28.1493 15.368 29.1733 17.96 28.9813 20.584C28.8533 23.208 27.5413 25.608 25.0453 27.784C22.8053 29.704 20.3413 31.336 17.6533 32.68C14.9653 33.96 11.9893 35.24 8.72525 36.52L9.39725 46.888C9.39725 47.4 9.14125 47.816 8.62925 48.136C8.11725 48.456 7.54125 48.648 6.90125 48.712C6.26125 48.712 5.65325 48.616 5.07725 48.424C4.50125 48.232 4.18125 47.88 4.11725 47.368L3.34925 35.08ZM8.53325 33.736C10.1333 33.096 11.7333 32.424 13.3333 31.72C14.9333 30.952 16.4373 30.12 17.8453 29.224C19.3173 28.264 20.5973 27.208 21.6853 26.056C22.8373 24.84 23.7653 23.496 24.4693 22.024C25.1733 20.424 25.0773 18.76 24.1813 17.032C23.2853 15.24 21.9733 13.576 20.2453 12.04C18.5173 10.44 16.5973 9.096 14.4853 8.008C12.3733 6.856 10.4533 6.12 8.72525 5.8H8.62925C8.18125 5.928 7.82925 6.504 7.57325 7.528C7.38125 8.488 7.25325 9.672 7.18925 11.08C7.18925 12.488 7.22125 14.024 7.28525 15.688C7.34925 17.352 7.44525 18.952 7.57325 20.488C7.70125 21.96 7.82925 23.272 7.95725 24.424C8.08525 25.512 8.14925 26.248 8.14925 26.632L8.53325 33.736ZM30.1723 36.712C29.4043 36.584 28.9563 36.2 28.8283 35.56C28.7643 34.856 29.1163 34.376 29.8843 34.12C30.2043 34.056 30.5243 34.024 30.8443 34.024C31.1643 33.96 31.4843 33.928 31.8043 33.928C31.9323 32.072 32.1883 30.248 32.5723 28.456C33.0203 26.664 33.6283 25.224 34.3963 24.136C35.5483 22.536 36.7643 21.832 38.0443 22.024C39.3883 22.216 40.5083 22.888 41.4043 24.04C42.3643 25.128 42.9403 26.504 43.1323 28.168C43.3883 29.832 43.0363 31.336 42.0763 32.68C41.5643 33.384 40.8603 33.992 39.9643 34.504C39.1323 35.016 38.2043 35.432 37.1803 35.752C37.2443 38.312 37.6283 40.616 38.3323 42.664C39.0363 44.648 40.4123 45.928 42.4603 46.504C44.1243 46.184 45.6603 45.48 47.0683 44.392C48.4763 43.24 49.7563 42.088 50.9083 40.936C51.2923 40.616 51.7083 40.488 52.1562 40.552C52.6042 40.552 52.9883 40.68 53.3083 40.936C53.6283 41.128 53.8523 41.416 53.9803 41.8C54.1083 42.12 54.0123 42.472 53.6923 42.856C52.6683 43.816 51.6443 44.712 50.6203 45.544C49.5963 46.312 48.4443 47.016 47.1643 47.656C44.4763 48.936 42.1723 49.448 40.2523 49.192C38.3323 49 36.7323 48.328 35.4523 47.176C34.2363 45.96 33.3083 44.424 32.6683 42.568C32.0923 40.648 31.7723 38.664 31.7083 36.616C31.3883 36.616 31.0683 36.648 30.7483 36.712C30.4923 36.712 30.3003 36.712 30.1723 36.712ZM39.7723 31.048C40.6683 30.152 40.9563 29.192 40.6363 28.168C40.3163 27.08 39.8043 26.28 39.1003 25.768C38.7803 26.152 38.5243 26.632 38.3323 27.208C38.1403 27.784 37.9483 28.424 37.7563 29.128C37.6283 29.768 37.5323 30.44 37.4683 31.144C37.4043 31.784 37.3403 32.36 37.2763 32.872C38.2363 32.424 39.0683 31.816 39.7723 31.048ZM58.148 22.024C58.276 21.32 58.596 20.84 59.108 20.584C59.62 20.328 60.196 20.232 60.836 20.296C61.476 20.36 62.052 20.552 62.564 20.872C63.076 21.128 63.396 21.448 63.524 21.832C63.524 22.344 63.556 23.272 63.62 24.616C63.684 25.896 63.78 27.4 63.908 29.128C64.996 26.888 66.628 24.968 68.804 23.368C70.98 21.704 74.084 20.264 78.116 19.048C79.012 18.984 79.524 19.304 79.652 20.008C79.844 20.648 79.588 21.192 78.884 21.64C75.044 22.728 72.26 24.104 70.532 25.768C68.804 27.432 67.684 29.384 67.172 31.624C66.66 33.8 66.436 36.296 66.5 39.112C66.628 41.928 66.596 45.064 66.404 48.52C66.34 48.904 66.084 49.192 65.636 49.384C65.252 49.64 64.772 49.8 64.196 49.864C63.62 49.992 63.044 50.024 62.468 49.96C61.956 49.96 61.572 49.832 61.316 49.576C61.124 49.192 60.9 48.36 60.644 47.08C60.388 45.736 60.132 44.168 59.876 42.376C59.684 40.52 59.46 38.536 59.204 36.424C59.012 34.248 58.82 32.2 58.628 30.28C58.5 28.36 58.372 26.664 58.244 25.192C58.18 23.72 58.148 22.664 58.148 22.024ZM96.2083 6.664C96.7203 7.24 96.7843 7.784 96.4003 8.296C96.0803 8.808 95.4723 8.904 94.5763 8.584L91.7923 7.624C91.2803 9.864 91.1843 12.2 91.5043 14.632C91.8243 17.064 92.1763 19.432 92.5603 21.736C94.2243 21.416 95.8243 21.224 97.3603 21.16C98.9603 21.032 100.496 21.064 101.968 21.256C102.416 21.384 102.704 21.608 102.832 21.928C103.024 22.248 103.088 22.568 103.024 22.888C102.96 23.208 102.768 23.496 102.448 23.752C102.128 23.944 101.744 24.008 101.296 23.944C99.9523 23.88 98.5763 23.912 97.1683 24.04C95.8243 24.104 94.4163 24.232 92.9443 24.424C93.2643 26.792 93.5843 29.64 93.9043 32.968C94.2243 36.296 94.4483 39.688 94.5763 43.144C94.7683 46.536 94.7683 49.704 94.5763 52.648C94.4483 55.656 94.0323 58.024 93.3282 59.752C92.6243 61.352 91.5363 62.472 90.0643 63.112C88.5923 63.752 86.9923 64.232 85.2643 64.552C84.8803 64.616 84.5283 64.552 84.2083 64.36C83.9523 64.168 83.7603 63.912 83.6323 63.592C83.5043 63.336 83.5043 63.048 83.6323 62.728C83.7603 62.408 84.0483 62.184 84.4963 62.056C85.8403 61.864 86.8643 61.48 87.5683 60.904C88.3363 60.392 88.8803 59.688 89.2003 58.792C89.5203 57.96 89.6803 57 89.6803 55.912C89.7443 54.824 89.7763 53.64 89.7763 52.36C89.7763 51.336 89.7443 49.896 89.6803 48.04C89.6163 46.12 89.4883 43.976 89.2963 41.608C89.1683 39.176 88.9763 36.584 88.7203 33.832C88.4643 31.016 88.1443 28.136 87.7603 25.192C86.9283 25.32 86.0963 25.416 85.2643 25.48C84.4323 25.544 83.6323 25.608 82.8643 25.672C81.9683 25.544 81.5523 25.096 81.6163 24.328C81.6803 23.496 82.1603 23.048 83.0563 22.984C83.7603 22.984 84.4643 22.952 85.1683 22.888C85.8723 22.824 86.6083 22.728 87.3763 22.6C86.9923 19.4 86.6083 16.488 86.2243 13.864C85.8403 11.176 86.0003 8.712 86.7043 6.472C87.2163 5.064 87.8563 4.36 88.6243 4.36C89.4563 4.296 90.2563 4.328 91.0243 4.456C92.0483 4.776 93.0083 5.096 93.9043 5.416C94.8003 5.736 95.5683 6.152 96.2083 6.664ZM106.016 36.712C105.248 36.584 104.8 36.2 104.672 35.56C104.608 34.856 104.96 34.376 105.728 34.12C106.048 34.056 106.368 34.024 106.688 34.024C107.008 33.96 107.328 33.928 107.648 33.928C107.776 32.072 108.032 30.248 108.416 28.456C108.864 26.664 109.472 25.224 110.24 24.136C111.392 22.536 112.608 21.832 113.888 22.024C115.232 22.216 116.352 22.888 117.248 24.04C118.208 25.128 118.784 26.504 118.976 28.168C119.232 29.832 118.88 31.336 117.92 32.68C117.408 33.384 116.704 33.992 115.808 34.504C114.976 35.016 114.048 35.432 113.024 35.752C113.088 38.312 113.472 40.616 114.176 42.664C114.88 44.648 116.256 45.928 118.304 46.504C119.968 46.184 121.504 45.48 122.912 44.392C124.32 43.24 125.6 42.088 126.752 40.936C127.136 40.616 127.552 40.488 128 40.552C128.448 40.552 128.832 40.68 129.152 40.936C129.472 41.128 129.696 41.416 129.824 41.8C129.952 42.12 129.856 42.472 129.536 42.856C128.512 43.816 127.488 44.712 126.464 45.544C125.44 46.312 124.288 47.016 123.008 47.656C120.32 48.936 118.016 49.448 116.096 49.192C114.176 49 112.576 48.328 111.296 47.176C110.08 45.96 109.152 44.424 108.512 42.568C107.936 40.648 107.616 38.664 107.552 36.616C107.232 36.616 106.912 36.648 106.592 36.712C106.336 36.712 106.144 36.712 106.016 36.712ZM115.616 31.048C116.512 30.152 116.8 29.192 116.48 28.168C116.16 27.08 115.648 26.28 114.944 25.768C114.624 26.152 114.368 26.632 114.176 27.208C113.984 27.784 113.792 28.424 113.6 29.128C113.472 29.768 113.376 30.44 113.312 31.144C113.248 31.784 113.184 32.36 113.12 32.872C114.08 32.424 114.912 31.816 115.616 31.048ZM147.934 29.8C147.678 30.696 147.23 31.176 146.59 31.24C146.014 31.24 145.534 30.856 145.15 30.088C145.022 29.704 144.67 28.936 144.094 27.784C143.582 26.632 142.878 25.736 141.982 25.096C141.534 25.48 141.118 26.12 140.734 27.016C140.414 27.848 140.126 28.872 139.87 30.088C139.678 31.24 139.55 32.52 139.486 33.928C139.422 35.336 139.454 36.712 139.582 38.056C139.71 40.168 140.094 42.088 140.734 43.816C141.438 45.544 142.334 46.728 143.422 47.368C144.702 46.856 145.662 46.216 146.302 45.448C146.942 44.68 147.806 43.816 148.894 42.856C149.342 42.6 149.758 42.504 150.142 42.568C150.59 42.568 150.942 42.696 151.198 42.952C151.518 43.208 151.71 43.528 151.774 43.912C151.838 44.296 151.71 44.68 151.39 45.064C150.686 45.96 149.79 46.824 148.702 47.656C147.614 48.488 146.43 49.096 145.15 49.48C142.91 50.184 141.022 50.152 139.486 49.384C138.014 48.68 136.83 47.528 135.934 45.928C135.102 44.264 134.526 42.344 134.206 40.168C133.95 37.992 133.854 35.816 133.918 33.64C134.046 31.464 134.366 29.448 134.878 27.592C135.39 25.736 135.998 24.328 136.702 23.368C137.726 22.088 138.878 21.448 140.158 21.448C141.502 21.384 142.75 21.768 143.902 22.6C145.054 23.368 146.014 24.424 146.782 25.768C147.55 27.048 147.934 28.392 147.934 29.8ZM154.862 24.616C153.966 24.488 153.55 24.04 153.614 23.272C153.678 22.504 154.158 22.056 155.054 21.928C156.27 21.864 157.454 21.8 158.606 21.736C159.822 21.608 161.038 21.448 162.254 21.256C162.126 17.992 162.03 14.728 161.966 11.464C161.966 8.136 161.966 4.808 161.966 1.48C162.03 1.032 162.318 0.711998 162.83 0.52C163.406 0.264 163.982 0.136 164.558 0.136C165.198 0.136 165.774 0.231998 166.286 0.423996C166.862 0.615997 167.214 0.903998 167.342 1.288C167.342 4.552 167.342 7.784 167.342 10.984C167.406 14.184 167.502 17.384 167.63 20.584C169.486 20.264 171.342 19.976 173.198 19.72C175.054 19.464 176.91 19.272 178.766 19.144C179.534 19.464 179.918 19.976 179.918 20.68C179.918 21.32 179.502 21.704 178.67 21.832C176.814 21.96 174.99 22.152 173.198 22.408C171.406 22.664 169.582 22.952 167.726 23.272C167.854 26.216 168.046 29.384 168.302 32.776C168.622 36.104 168.942 39.4 169.262 42.664C169.646 45.864 170.03 48.84 170.414 51.592C170.798 54.408 171.15 56.68 171.47 58.408C171.406 58.984 171.15 59.432 170.702 59.752C170.318 60.072 169.87 60.232 169.358 60.232C168.846 60.296 168.334 60.2 167.822 59.944C167.374 59.752 167.086 59.432 166.958 58.984C165.486 53.096 164.398 47.272 163.694 41.512C163.054 35.752 162.606 29.864 162.35 23.848C161.134 24.104 159.886 24.296 158.606 24.424C157.39 24.488 156.142 24.552 154.862 24.616ZM231.46 2.536C231.844 3.24 232.004 4.104 231.94 5.128C231.94 6.152 231.78 7.272 231.46 8.488L231.94 9.64C232.132 10.216 232.068 10.664 231.748 10.984C231.492 11.304 231.172 11.432 230.788 11.368C230.916 13.544 231.268 15.688 231.844 17.8C232.484 19.848 233.156 21.896 233.86 23.944L236.548 22.888C237.444 22.568 238.052 22.76 238.372 23.464C238.692 24.168 238.468 24.776 237.7 25.288L234.82 26.44L235.204 27.304C235.844 28.968 236.484 30.568 237.124 32.104C237.764 33.64 238.34 35.144 238.852 36.616C239.236 37.768 239.716 39.048 240.292 40.456C240.932 41.864 241.476 43.304 241.924 44.776C242.436 46.248 242.788 47.688 242.98 49.096C243.172 50.568 243.076 51.944 242.692 53.224C242.18 54.888 240.996 56.2 239.14 57.16C237.348 58.12 235.14 58.76 232.516 59.08C229.892 59.4 227.012 59.432 223.876 59.176C220.804 58.92 217.732 58.376 214.66 57.544C211.652 56.776 208.804 55.752 206.116 54.472C203.428 53.192 201.188 51.688 199.396 49.96C198.116 48.744 197.54 47.56 197.668 46.408C197.796 45.192 198.276 44.04 199.108 42.952C200.004 41.8 201.124 40.712 202.468 39.688C203.812 38.664 205.092 37.768 206.308 37C209.956 34.696 213.7 32.68 217.54 30.952C221.38 29.16 225.284 27.432 229.252 25.768C228.676 24.104 228.1 22.408 227.524 20.68C226.948 18.888 226.436 17.16 225.988 15.496C225.284 16.84 224.484 18.152 223.588 19.432C222.756 20.648 221.892 21.704 220.996 22.6C220.1 23.432 219.204 24.04 218.308 24.424C217.476 24.808 216.676 24.808 215.908 24.424C214.308 23.656 213.22 22.632 212.644 21.352C212.132 20.008 212.004 18.6 212.26 17.128C212.516 15.592 213.06 14.088 213.892 12.616C214.788 11.08 215.844 9.736 217.06 8.584C218.276 7.432 219.62 6.568 221.092 5.992C222.564 5.416 224.036 5.32 225.508 5.704L226.084 2.632C226.148 2.184 226.436 1.832 226.948 1.576C227.46 1.256 228.004 1.064 228.58 1C229.156 0.935997 229.7 1.032 230.212 1.288C230.788 1.48 231.204 1.864 231.46 2.44V2.536ZM233.668 37.672C233.22 36.584 232.676 35.24 232.036 33.64C231.46 31.976 230.82 30.184 230.116 28.264C227.94 29.096 225.668 30.056 223.3 31.144C220.996 32.168 218.724 33.288 216.484 34.504C214.308 35.656 212.26 36.872 210.34 38.152C208.42 39.368 206.82 40.584 205.54 41.8C204.324 42.952 203.492 44.104 203.044 45.256C202.66 46.344 202.82 47.336 203.523 48.232C204.228 49.128 205.476 50.024 207.268 50.92C209.06 51.88 211.108 52.744 213.412 53.512C215.78 54.344 218.244 55.016 220.804 55.528C223.428 56.04 225.86 56.296 228.1 56.296C230.404 56.36 232.388 56.072 234.052 55.432C235.716 54.856 236.836 53.864 237.412 52.456C237.668 51.688 237.668 50.6 237.412 49.192C237.156 47.784 236.772 46.344 236.26 44.872C235.812 43.336 235.3 41.928 234.724 40.648C234.212 39.304 233.86 38.312 233.668 37.672ZM225.124 10.312C225.06 9.992 225.028 9.736 225.028 9.544C225.028 9.288 225.028 9 225.028 8.68C223.94 9 222.82 9.672 221.668 10.696C220.516 11.656 219.556 12.776 218.788 14.056C218.02 15.272 217.54 16.552 217.348 17.896C217.22 19.176 217.636 20.296 218.596 21.256C219.492 20.552 220.292 19.624 220.996 18.472C221.764 17.32 222.308 16.52 222.628 16.072C223.14 15.112 223.588 14.184 223.972 13.288C224.42 12.328 224.804 11.336 225.124 10.312ZM246.079 36.712C245.311 36.584 244.863 36.2 244.735 35.56C244.671 34.856 245.023 34.376 245.791 34.12C246.111 34.056 246.431 34.024 246.751 34.024C247.071 33.96 247.391 33.928 247.711 33.928C247.839 32.072 248.095 30.248 248.479 28.456C248.927 26.664 249.535 25.224 250.303 24.136C251.455 22.536 252.671 21.832 253.951 22.024C255.295 22.216 256.415 22.888 257.311 24.04C258.271 25.128 258.847 26.504 259.039 28.168C259.295 29.832 258.943 31.336 257.983 32.68C257.471 33.384 256.767 33.992 255.871 34.504C255.039 35.016 254.111 35.432 253.087 35.752C253.151 38.312 253.535 40.616 254.239 42.664C254.943 44.648 256.319 45.928 258.367 46.504C260.031 46.184 261.567 45.48 262.975 44.392C264.383 43.24 265.663 42.088 266.815 40.936C267.199 40.616 267.615 40.488 268.062 40.552C268.51 40.552 268.895 40.68 269.215 40.936C269.535 41.128 269.759 41.416 269.887 41.8C270.015 42.12 269.919 42.472 269.599 42.856C268.575 43.816 267.551 44.712 266.527 45.544C265.503 46.312 264.351 47.016 263.071 47.656C260.383 48.936 258.079 49.448 256.159 49.192C254.239 49 252.639 48.328 251.359 47.176C250.143 45.96 249.215 44.424 248.575 42.568C247.999 40.648 247.679 38.664 247.615 36.616C247.295 36.616 246.975 36.648 246.655 36.712C246.399 36.712 246.207 36.712 246.079 36.712ZM255.679 31.048C256.575 30.152 256.863 29.192 256.543 28.168C256.223 27.08 255.711 26.28 255.007 25.768C254.687 26.152 254.431 26.632 254.239 27.208C254.047 27.784 253.855 28.424 253.663 29.128C253.535 29.768 253.439 30.44 253.375 31.144C253.311 31.784 253.247 32.36 253.183 32.872C254.143 32.424 254.975 31.816 255.679 31.048ZM268.018 24.616C267.122 24.488 266.706 24.04 266.77 23.272C266.834 22.504 267.314 22.056 268.21 21.928C269.426 21.864 270.61 21.8 271.762 21.736C272.978 21.608 274.194 21.448 275.41 21.256C275.282 17.992 275.186 14.728 275.122 11.464C275.122 8.136 275.122 4.808 275.122 1.48C275.186 1.032 275.474 0.711998 275.986 0.52C276.562 0.264 277.138 0.136 277.714 0.136C278.354 0.136 278.93 0.231998 279.442 0.423996C280.018 0.615997 280.37 0.903998 280.498 1.288C280.498 4.552 280.498 7.784 280.498 10.984C280.562 14.184 280.658 17.384 280.786 20.584C282.642 20.264 284.498 19.976 286.354 19.72C288.21 19.464 290.066 19.272 291.922 19.144C292.69 19.464 293.074 19.976 293.074 20.68C293.074 21.32 292.658 21.704 291.826 21.832C289.97 21.96 288.146 22.152 286.354 22.408C284.562 22.664 282.738 22.952 280.882 23.272C281.01 26.216 281.202 29.384 281.458 32.776C281.778 36.104 282.098 39.4 282.418 42.664C282.802 45.864 283.186 48.84 283.57 51.592C283.954 54.408 284.306 56.68 284.626 58.408C284.562 58.984 284.306 59.432 283.858 59.752C283.474 60.072 283.026 60.232 282.514 60.232C282.002 60.296 281.49 60.2 280.978 59.944C280.53 59.752 280.242 59.432 280.114 58.984C278.642 53.096 277.554 47.272 276.85 41.512C276.21 35.752 275.762 29.864 275.506 23.848C274.29 24.104 273.042 24.296 271.762 24.424C270.546 24.488 269.298 24.552 268.018 24.616ZM299.013 25.672C299.653 24.84 300.453 24.232 301.413 23.848C302.373 23.464 303.397 23.368 304.485 23.56C304.485 23.304 304.517 23.048 304.581 22.792C304.645 22.472 304.837 22.184 305.157 21.928C305.861 21.416 306.725 21.288 307.749 21.544C308.837 21.8 309.509 22.184 309.765 22.696C309.829 24.424 309.957 26.76 310.149 29.704C310.341 32.648 310.629 35.656 311.013 38.728C311.397 41.736 311.909 44.52 312.549 47.08C313.189 49.64 313.989 51.4 314.949 52.36C315.205 52.68 315.205 53 314.949 53.32C314.757 53.64 314.437 53.896 313.989 54.088C313.605 54.344 313.125 54.504 312.549 54.568C312.037 54.632 311.653 54.568 311.397 54.376C310.693 53.736 310.053 52.808 309.477 51.592C308.965 50.44 308.485 49.128 308.037 47.656C307.589 46.184 307.173 44.584 306.789 42.856C306.405 41.128 306.085 39.368 305.829 37.576C305.509 38.856 305.157 40.104 304.773 41.32C304.389 42.472 303.845 43.592 303.141 44.68C302.245 46.344 301.189 47.464 299.973 48.04C298.821 48.616 297.701 48.776 296.613 48.52C295.589 48.2 294.725 47.496 294.021 46.408C293.381 45.256 293.125 43.752 293.253 41.896C293.445 38.824 293.957 35.976 294.789 33.352C295.685 30.664 297.093 28.104 299.013 25.672ZM299.013 45.352C300.037 44.52 300.869 43.368 301.509 41.896C302.213 40.36 302.725 38.728 303.045 37C303.429 35.272 303.653 33.576 303.717 31.912C303.845 30.184 303.845 28.712 303.717 27.496C302.821 28.392 301.957 29.608 301.125 31.144C300.357 32.616 299.717 34.184 299.205 35.848C298.757 37.512 298.469 39.208 298.341 40.936C298.277 42.6 298.501 44.072 299.013 45.352ZM320.472 24.328C320.536 23.752 320.824 23.368 321.336 23.176C321.912 22.92 322.488 22.824 323.064 22.888C323.704 22.888 324.28 23.016 324.792 23.272C325.368 23.464 325.72 23.752 325.848 24.136C325.912 26.568 325.976 29.16 326.04 31.912C326.168 34.6 326.424 37.096 326.808 39.4C327.064 38.184 327.32 36.936 327.576 35.656C327.896 34.376 328.216 33.192 328.536 32.104C328.856 30.952 329.176 29.96 329.496 29.128C329.816 28.296 330.104 27.72 330.36 27.4C330.872 26.76 331.416 26.344 331.992 26.152C332.632 25.96 333.24 25.896 333.816 25.96C334.456 26.024 335.032 26.184 335.544 26.44C336.056 26.632 336.472 26.824 336.792 27.016C337.368 27.336 337.912 28.04 338.424 29.128C338.936 30.152 339.416 31.368 339.864 32.776C340.376 34.12 340.888 35.528 341.4 37C341.912 38.408 342.456 39.656 343.032 40.744C343.736 38.312 344.12 35.72 344.184 32.968C344.312 30.152 344.216 27.336 343.896 24.52C343.832 24.072 343.896 23.72 344.088 23.464C344.344 23.144 344.632 22.952 344.952 22.888C345.272 22.824 345.592 22.888 345.912 23.08C346.232 23.208 346.456 23.496 346.584 23.944C346.776 25.544 346.936 27.272 347.064 29.128C347.256 30.984 347.352 32.84 347.352 34.696C347.352 36.552 347.256 38.408 347.064 40.264C346.872 42.056 346.488 43.752 345.912 45.352C345.592 45.8 344.984 46.056 344.088 46.12C343.192 46.12 342.488 46.056 341.976 45.928C341.08 45.608 340.216 44.712 339.384 43.24C338.552 41.768 337.752 40.136 336.984 38.344C336.28 36.552 335.64 34.824 335.064 33.16C334.488 31.432 333.976 30.184 333.528 29.416C332.824 30.504 332.28 31.976 331.896 33.832C331.512 35.688 331.16 37.576 330.84 39.496C330.584 41.352 330.296 43.048 329.976 44.584C329.656 46.12 329.208 47.112 328.632 47.56C328.376 47.688 328.024 47.848 327.576 48.04C327.128 48.168 326.648 48.232 326.136 48.232C325.688 48.232 325.24 48.168 324.792 48.04C324.344 47.848 323.992 47.496 323.736 46.984C322.584 43.208 321.752 39.464 321.24 35.752C320.792 31.976 320.536 28.168 320.472 24.328ZM360.513 25.672C361.153 24.84 361.953 24.232 362.913 23.848C363.873 23.464 364.897 23.368 365.985 23.56C365.985 23.304 366.017 23.048 366.081 22.792C366.145 22.472 366.337 22.184 366.657 21.928C367.361 21.416 368.225 21.288 369.249 21.544C370.337 21.8 371.009 22.184 371.265 22.696C371.329 24.424 371.457 26.76 371.649 29.704C371.841 32.648 372.129 35.656 372.513 38.728C372.897 41.736 373.409 44.52 374.049 47.08C374.689 49.64 375.489 51.4 376.449 52.36C376.705 52.68 376.705 53 376.449 53.32C376.257 53.64 375.937 53.896 375.489 54.088C375.105 54.344 374.625 54.504 374.049 54.568C373.537 54.632 373.153 54.568 372.897 54.376C372.193 53.736 371.553 52.808 370.977 51.592C370.465 50.44 369.985 49.128 369.537 47.656C369.089 46.184 368.673 44.584 368.289 42.856C367.905 41.128 367.585 39.368 367.329 37.576C367.009 38.856 366.657 40.104 366.273 41.32C365.889 42.472 365.345 43.592 364.641 44.68C363.745 46.344 362.689 47.464 361.473 48.04C360.321 48.616 359.201 48.776 358.113 48.52C357.089 48.2 356.225 47.496 355.521 46.408C354.881 45.256 354.625 43.752 354.753 41.896C354.945 38.824 355.457 35.976 356.289 33.352C357.185 30.664 358.593 28.104 360.513 25.672ZM360.513 45.352C361.537 44.52 362.369 43.368 363.009 41.896C363.713 40.36 364.225 38.728 364.545 37C364.929 35.272 365.153 33.576 365.217 31.912C365.345 30.184 365.345 28.712 365.217 27.496C364.321 28.392 363.457 29.608 362.625 31.144C361.857 32.616 361.217 34.184 360.705 35.848C360.257 37.512 359.969 39.208 359.841 40.936C359.777 42.6 360.001 44.072 360.513 45.352ZM384.948 25.384C385.14 26.536 385.396 27.912 385.716 29.512C386.1 31.048 386.548 32.584 387.06 34.12C387.572 35.656 388.148 37.096 388.788 38.44C389.492 39.784 390.26 40.776 391.092 41.416C391.732 40.584 392.02 39.272 391.956 37.48C391.892 35.688 391.732 33.672 391.476 31.432C391.22 29.192 390.964 26.856 390.708 24.424C390.452 21.992 390.42 19.72 390.612 17.608C390.804 17.096 391.156 16.776 391.668 16.648C392.244 16.456 392.82 16.424 393.396 16.552C393.972 16.616 394.484 16.776 394.932 17.032C395.444 17.288 395.764 17.576 395.892 17.896C396.276 24.04 396.788 30.12 397.428 36.136C398.068 42.088 398.676 48.168 399.252 54.376C400.916 54.12 402.42 53.896 403.764 53.704C405.172 53.576 406.932 53.384 409.044 53.128C409.62 53.192 410.036 53.32 410.292 53.512C410.548 53.768 410.676 54.024 410.676 54.28C410.676 54.6 410.58 54.888 410.388 55.144C410.196 55.4 409.94 55.56 409.62 55.624C408.468 55.752 407.444 55.88 406.548 56.008C405.716 56.136 404.916 56.264 404.148 56.392C403.444 56.52 402.708 56.648 401.94 56.776C401.236 56.904 400.436 57.032 399.54 57.16C399.604 58.312 399.668 59.848 399.732 61.768C399.86 63.688 399.924 65.768 399.924 68.008C399.988 70.248 399.892 72.52 399.636 74.824C399.444 77.192 399.06 79.368 398.484 81.352C397.908 83.4 397.076 85.16 395.988 86.632C394.9 88.168 393.492 89.224 391.764 89.8C389.78 90.504 387.604 90.568 385.236 89.992C382.868 89.416 380.532 88.424 378.228 87.016C375.924 85.672 373.748 84.008 371.7 82.024C369.652 80.04 367.956 77.992 366.612 75.88C365.204 73.768 364.276 71.688 363.828 69.64C363.316 67.656 363.476 65.896 364.308 64.36C365.268 62.632 366.932 61.224 369.3 60.136C371.604 59.112 374.196 58.248 377.076 57.544C379.956 56.904 382.9 56.392 385.908 56.008C388.916 55.624 391.572 55.272 393.876 54.952C393.748 53.672 393.652 52.552 393.588 51.592C393.524 50.696 393.428 49.832 393.3 49C393.236 48.232 393.14 47.4 393.012 46.504C392.948 45.608 392.852 44.52 392.724 43.24C392.34 43.624 391.86 43.944 391.284 44.2C390.772 44.392 390.26 44.36 389.748 44.104C388.724 43.272 387.668 42.12 386.58 40.648C385.492 39.112 384.5 37.48 383.604 35.752C382.708 34.024 381.94 32.264 381.3 30.472C380.724 28.68 380.436 27.048 380.436 25.576C380.564 25.192 380.852 24.904 381.3 24.712C381.748 24.456 382.228 24.328 382.74 24.328C383.252 24.328 383.7 24.424 384.084 24.616C384.532 24.744 384.82 25 384.948 25.384ZM391.86 84.136C392.82 82.408 393.492 80.424 393.876 78.184C394.26 75.944 394.484 73.608 394.548 71.176C394.612 68.808 394.548 66.44 394.356 64.072C394.228 61.768 394.1 59.656 393.972 57.736C392.5 57.992 390.516 58.28 388.02 58.6C385.588 58.92 383.06 59.368 380.436 59.944C377.876 60.52 375.476 61.224 373.236 62.056C370.996 62.952 369.428 64.04 368.532 65.32C367.764 66.408 367.668 67.848 368.244 69.64C368.82 71.496 369.812 73.416 371.22 75.4C372.628 77.384 374.324 79.272 376.308 81.064C378.228 82.92 380.18 84.36 382.164 85.384C384.212 86.408 386.1 86.888 387.828 86.824C389.556 86.824 390.9 85.928 391.86 84.136Z" fill="#0094FF" style="mix-blend-mode:screen"/>
</svg>
